Coordinates
version=1
nRows=11
nColumns=42
inDegrees=yes

Units are S.I. units (second, meters, Newtons, ...)
If the header above contains a line with 'inDegrees', this indicates whether rotational values are in degrees (yes) or radians (no).

endheader
time	pelvis_tilt	pelvis_list	pelvis_rotation	pelvis_tx	pelvis_ty	pelvis_tz	hip_flexion_r	hip_adduction_r	hip_rotation_r	knee_angle_r	knee_adduction_r	knee_angle_r_beta	ankle_angle_r	subtalar_angle_r	mtp_angle_r	hip_flexion_l	hip_adduction_l	hip_rotation_l	knee_angle_l	knee_adduction_l	knee_angle_l_beta	ankle_angle_l	subtalar_angle_l	mtp_angle_l	lumbar_extension	lumbar_bending	lumbar_rotation	arm_flex_r	arm_add_r	arm_rot_r	elbow_flex_r	pro_sup_r	wrist_flex_r	wrist_dev_r	arm_flex_l	arm_add_l	arm_rot_l	elbow_flex_l	pro_sup_l	wrist_flex_l	wrist_dev_l
      0.75000000	     19.22536051	     -0.36807011	      0.55642482	     -1.20411113	      0.88288595	     -0.00597254	    -27.86411862	      4.33019171	    -10.57578712	     18.99996320	     -0.38837500	      0.33161192	     27.51657968	      6.14705406	     -8.14379829	      7.98866301	     -3.09240924	      8.54069839	      9.32498452	      4.35146468	      0.16275168	      1.76430885	    -11.67614702	     -8.14379829	    -37.04264953	     -0.05814833	      0.85211487	     23.03875127	     -9.41386144	      0.63248373	     35.79091921	     90.00000001	      0.00000000	      0.00000000	      4.89963455	     -3.89172613	    -36.08787613	     32.37949348	     90.00000001	      0.00000000	      0.00000000
      0.76000000	     19.29146463	     -0.38275734	      0.51596583	     -1.19442647	      0.88161085	     -0.00718971	    -28.52210712	      4.09738736	    -11.12508755	     19.30968405	     -0.34394824	      0.33701756	     27.59292943	      6.60229650	     -8.12639214	      8.35067390	     -2.97322359	      8.44194230	     10.69709283	      4.66691490	      0.18669949	      1.52291158	    -13.27052528	     -8.12639214	    -36.96106943	     -0.03669757	      0.85425502	     23.06653942	     -9.34847141	      0.49737200	     35.83692910	     90.00000001	      0.00000000	      0.00000000	      4.72392476	     -3.79707724	    -36.28024290	     32.16159425	     90.00000001	      0.00000000	      0.00000000
      0.77000000	     19.23673011	     -0.42638794	      0.39661243	     -1.18463444	      0.88026010	     -0.00825191	    -28.96402986	      3.87701266	    -11.39066564	     19.80497749	     -0.30545226	      0.34566207	     27.52986934	      6.74087614	     -8.12043014	      8.49375736	     -2.93628605	      8.70544396	     11.49482830	      5.02339439	      0.20062260	      1.51760566	    -13.72064307	     -8.12043014	    -36.74030855	     -0.04291713	      0.96618942	     23.02103695	     -9.34681298	      0.46323480	     35.86063333	     90.00000001	      0.00000000	      0.00000000	      4.51687441	     -3.70558451	    -36.35743914	     32.02553585	     90.00000001	      0.00000000	      0.00000000
      0.78000000	     19.03333742	     -0.46871576	      0.28651935	     -1.17470306	      0.87871537	     -0.00951242	    -29.17896358	      3.65733679	    -11.72429369	     20.43784557	     -0.39012654	      0.35670770	     27.44985604	      6.93999273	     -8.11406934	      8.85877463	     -2.85655518	      8.94834753	     12.57466884	      5.39457362	      0.21946937	      1.41215607	    -14.15360235	     -8.11406934	    -36.35079870	     -0.02728510	      1.08339238	     22.87778092	     -9.33936515	      0.40834621	     35.87658484	     90.00000001	      0.00000000	      0.00000000	      4.32754604	     -3.57338014	    -36.43574321	     31.89671056	     90.00000001	      0.00000000	      0.00000000
      0.79000000	     18.76976577	     -0.45763648	      0.31417392	     -1.16440576	      0.87698930	     -0.01100348	    -29.23906837	      3.36949476	    -13.12613977	     21.25368205	     -0.70263069	      0.37094673	     27.88408321	      8.86639742	     -8.07680664	      9.46131732	     -2.64767429	      8.97778485	     14.15059148	      5.67242708	      0.24697441	      1.00299280	    -15.18889776	     -8.07680664	    -35.83264761	     -0.00445031	      1.02599967	     22.66753971	     -9.24423054	      0.11798539	     35.86476917	     90.00000001	      0.00000000	      0.00000000	      4.13910344	     -3.41833079	    -37.04579630	     31.59340262	     90.00000001	      0.00000000	      0.00000000
      0.80000000	     18.54689148	     -0.48920470	      0.23271926	     -1.15419871	      0.87556221	     -0.01231618	    -29.37922732	      3.08787850	    -13.43589246	     22.04098539	     -0.70958062	      0.38468777	     27.64275062	      8.95294022	     -8.06932452	      9.79111196	     -2.57255920	      9.30815778	     15.32572135	      6.10820318	      0.26748430	      0.88153166	    -15.28754186	     -8.06932452	    -35.40333832	     -0.01217280	      1.12929443	     22.40911592	     -9.23460727	      0.02511036	     35.87764495	     90.00000001	      0.00000000	      0.00000000	      3.91464685	     -3.30810079	    -37.07535590	     31.45952725	     90.00000001	      0.00000000	      0.00000000
      0.81000000	     18.25493010	     -0.47460162	      0.24909791	     -1.14375359	      0.87405500	     -0.01388084	    -29.43549785	      2.83188152	    -14.07122305	     22.81449352	     -0.92345141	      0.39818803	     27.41391563	      9.47987681	     -8.05791206	     10.41346472	     -2.36155300	      9.41783275	     17.05913126	      6.44102488	      0.29773801	      0.62206301	    -15.67222086	     -8.05791206	    -34.85917474	     -0.00928006	      1.14510796	     22.06553430	     -9.20197025	     -0.27879051	     35.87722887	     90.00000001	      0.00000000	      0.00000000	      3.71132590	     -3.21726628	    -37.25444302	     31.24427947	     90.00000001	      0.00000000	      0.00000000
      0.82000000	     18.02265291	     -0.47700947	      0.24184737	     -1.13322019	      0.87277712	     -0.01543825	    -29.50283031	      2.47796085	    -14.51556479	     23.76441536	     -0.91119017	      0.41476729	     27.05417555	      9.88069323	     -8.04996705	     10.80720723	     -2.25188616	      9.72642879	     18.47944623	      6.93603717	      0.32252718	      0.43861303	    -15.77166934	     -8.04996705	    -34.36996278	     -0.00476735	      1.17970526	     21.67548057	     -9.15494425	     -0.56529962	     35.85997721	     90.00000001	      0.00000000	      0.00000000	      3.51731853	     -3.10792345	    -37.39197882	     31.06539445	     90.00000001	      0.00000000	      0.00000000
      0.83000000	     17.79588338	     -0.37859138	      0.13123048	     -1.12273922	      0.87181115	     -0.01682895	    -29.56764845	      2.12041828	    -14.54865844	     24.61637164	     -1.09087508	      0.42963674	     26.68091999	     10.11533016	     -8.04643852	     11.02872945	     -2.04544617	     10.32435462	     19.59301967	      7.47432911	      0.34196270	      0.26426380	    -15.71839402	     -8.04643852	    -33.94103911	     -0.18169528	      1.33750911	     21.26008128	     -9.19354659	     -0.76299094	     35.75978076	     90.00000001	      0.00000000	      0.00000000	      3.34495473	     -3.00085914	    -37.47211355	     30.94812717	     90.00000001	      0.00000000	      0.00000000
      0.84000000	     17.55255420	     -0.26871252	      0.19470931	     -1.11182053	      0.87069024	     -0.01859439	    -29.57580861	      1.68882037	    -15.40448603	     25.63080534	     -1.33146250	      0.44734194	     26.23144271	     11.25345217	     -8.02196727	     11.65743152	     -1.70749624	     10.13210308	     21.62439469	      7.70168401	      0.37741689	      0.37924517	    -15.52354897	     -8.02196727	    -33.40567683	     -0.25504132	      1.31385345	     20.73573139	     -9.01514360	     -1.71536710	     35.73021716	     90.00000001	      0.00000000	      0.00000000	      3.19207483	     -2.91411715	    -37.83414277	     30.71359022	     90.00000001	      0.00000000	      0.00000000
      0.85000000	     17.36819373	     -0.11984941	      0.18853357	     -1.10107909	      0.87000980	     -0.02027682	    -29.60327128	      1.17586215	    -15.58212387	     26.72477066	     -1.30840427	      0.46643524	     25.41642022	     11.34018400	     -8.01641872	     11.87868325	     -1.40957177	     10.66523051	     22.89484191	      8.21184390	      0.39959037	      0.43889634	    -15.63631060	     -8.01641872	    -32.98510291	     -0.41844543	      1.32997612	     20.19228399	     -9.00111981	     -1.96119400	     35.68369671	     90.00000001	      0.00000000	      0.00000000	      3.02801531	     -2.85714575	    -37.89969689	     30.56694723	     90.00000001	      0.00000000	      0.00000000
